<?xml version="1.0" encoding="UTF-8"?>
<svg id="_レイヤー_1" data-name="レイヤー_1" xmlns="http://www.w3.org/2000/svg" version="1.1" viewBox="0 0 400 48">
  <!-- Generator: Adobe Illustrator 29.3.1, SVG Export Plug-In . SVG Version: 2.1.0 Build 151)  -->
  <defs>
    <style>
      .st0 {
        fill: #fff;
      }
    </style>
  </defs>
  <path class="st0" d="M8.19,20.18H0v-8.19h8.19v-3.15c0-2.01.37-3.6,1.12-4.78.75-1.18,1.69-2.07,2.82-2.68,1.13-.61,2.34-.99,3.62-1.14,1.29-.16,2.45-.23,3.49-.23h1.25v6.55h-.99c-.17,0-.42.03-.73.08-.31.05-.61.17-.89.36-.28.19-.52.45-.73.79s-.31.82-.31,1.43v2.77h3.65v8.19h-3.65v20.65h-8.66v-20.65Z"/>
  <path class="st0" d="M54.65,40.83h-8.66v-3.12h-.1c-.38.69-.87,1.3-1.46,1.82-.59.52-1.27.95-2.03,1.3-.76.35-1.57.6-2.42.75-.85.16-1.69.23-2.53.23-2.29,0-4.35-.42-6.15-1.25-1.81-.83-3.33-1.96-4.56-3.38-1.23-1.42-2.18-3.06-2.84-4.91-.66-1.85-.99-3.82-.99-5.9,0-2.36.4-4.49,1.2-6.39.8-1.9,1.86-3.52,3.18-4.86,1.32-1.33,2.86-2.36,4.61-3.07,1.75-.71,3.61-1.07,5.55-1.07,1.18,0,2.24.13,3.18.39s1.75.59,2.45.99c.69.4,1.27.83,1.72,1.3.45.47.82.93,1.1,1.38h.1v-3.07h8.66v28.84ZM31.55,26.49c0,.69.13,1.45.39,2.29.26.83.68,1.62,1.25,2.36.57.75,1.31,1.37,2.22,1.87.9.5,2.02.75,3.34.75s2.49-.25,3.41-.75c.92-.5,1.67-1.13,2.24-1.87.57-.74.98-1.55,1.23-2.42.24-.87.37-1.64.37-2.34,0-.87-.15-1.73-.44-2.6-.3-.87-.75-1.65-1.36-2.36-.61-.71-1.37-1.28-2.29-1.71-.92-.43-1.99-.65-3.21-.65s-2.32.23-3.21.7-1.63,1.07-2.22,1.79c-.59.73-1.03,1.52-1.3,2.39-.28.87-.42,1.71-.42,2.55Z"/>
  <path class="st0" d="M60.13,2.37h8.66v11.9c.76-.83,1.57-1.46,2.42-1.9.85-.43,1.67-.75,2.45-.96s1.49-.33,2.11-.36c.63-.03,1.1-.05,1.41-.05,1.49,0,3.08.29,4.77.86,1.69.57,3.22,1.46,4.61,2.68,1.39,1.21,2.55,2.78,3.47,4.7.92,1.92,1.38,4.25,1.38,6.99s-.42,4.88-1.25,6.83c-.83,1.96-1.93,3.59-3.28,4.88-1.36,1.3-2.91,2.27-4.67,2.91-1.76.64-3.55.96-5.4.96-2.05,0-3.81-.42-5.27-1.25-1.46-.83-2.47-1.77-3.02-2.81h-.1v3.07h-8.29V2.37ZM68.47,26.33c0,1.01.16,1.96.5,2.86.33.9.8,1.69,1.41,2.36.61.68,1.35,1.21,2.22,1.61.87.4,1.84.6,2.92.6s2.11-.21,3-.62,1.64-.96,2.27-1.64,1.11-1.46,1.46-2.36c.35-.9.52-1.82.52-2.75s-.17-1.84-.5-2.73c-.33-.88-.81-1.66-1.43-2.34s-1.37-1.22-2.24-1.64c-.87-.42-1.84-.62-2.92-.62-1.15,0-2.16.21-3.05.62-.89.42-1.64.97-2.27,1.66-.63.69-1.1,1.47-1.41,2.34-.31.87-.47,1.75-.47,2.65Z"/>
  <path class="st0" d="M122.24,40.83h-8.19v-3.07h-.1c-.45.94-.99,1.66-1.62,2.18-.63.52-1.29.92-1.98,1.2-.7.28-1.38.45-2.06.52-.68.07-1.3.1-1.85.1-.45,0-1.03-.03-1.72-.1-.7-.07-1.44-.23-2.24-.49-.8-.26-1.6-.63-2.4-1.12-.8-.48-1.51-1.13-2.14-1.92-.59-.73-1.05-1.41-1.38-2.05-.33-.64-.59-1.3-.78-1.97-.19-.68-.31-1.4-.37-2.18-.05-.78-.08-1.67-.08-2.68V11.99h8.66v15.95c0,.49.03,1.07.08,1.74.05.68.22,1.31.5,1.9.28.59.74,1.09,1.38,1.51.64.42,1.54.62,2.69.62.63,0,1.23-.09,1.82-.29.59-.19,1.12-.5,1.59-.94.47-.43.84-1.03,1.12-1.79.28-.76.42-1.71.42-2.86v-15.85h8.66v28.84Z"/>
  <path class="st0" d="M127.66,2.37h8.66v38.45h-8.66V2.37Z"/>
  <path class="st0" d="M172.15,40.83h-8.66v-3.12h-.1c-.38.69-.87,1.3-1.46,1.82-.59.52-1.27.95-2.03,1.3-.76.35-1.57.6-2.42.75-.85.16-1.69.23-2.53.23-2.29,0-4.35-.42-6.15-1.25-1.81-.83-3.33-1.96-4.56-3.38-1.23-1.42-2.18-3.06-2.84-4.91-.66-1.85-.99-3.82-.99-5.9,0-2.36.4-4.49,1.2-6.39.8-1.9,1.86-3.52,3.18-4.86,1.32-1.33,2.86-2.36,4.61-3.07,1.75-.71,3.61-1.07,5.55-1.07,1.18,0,2.24.13,3.18.39s1.75.59,2.45.99c.69.4,1.27.83,1.72,1.3.45.47.82.93,1.1,1.38h.1v-3.07h8.66v28.84ZM149.05,26.49c0,.69.13,1.45.39,2.29.26.83.68,1.62,1.25,2.36.57.75,1.31,1.37,2.22,1.87.9.5,2.02.75,3.34.75s2.49-.25,3.41-.75c.92-.5,1.67-1.13,2.24-1.87.57-.74.98-1.55,1.23-2.42.24-.87.37-1.64.37-2.34,0-.87-.15-1.73-.44-2.6-.3-.87-.75-1.65-1.36-2.36-.61-.71-1.37-1.28-2.29-1.71-.92-.43-1.99-.65-3.21-.65s-2.32.23-3.21.7-1.63,1.07-2.22,1.79c-.59.73-1.03,1.52-1.3,2.39-.28.87-.42,1.71-.42,2.55Z"/>
  <g>
    <path class="st0" d="M215.04,34.98c0,2.02-.31,3.83-.91,5.45-.61,1.62-1.49,2.98-2.63,4.11-1.15,1.13-2.54,1.98-4.19,2.58-1.65.59-3.53.89-5.64.89-2.88,0-5.37-.71-7.47-2.13-2.1-1.42-3.67-3.3-4.71-5.64h5.17c.18.24.44.56.78.96.34.4.8.79,1.36,1.18s1.25.72,2.05,1c.8.28,1.75.42,2.85.42,1.22,0,2.36-.16,3.41-.47,1.06-.31,1.98-.82,2.77-1.51.79-.7,1.41-1.59,1.85-2.69.45-1.1.67-2.44.67-4.04h-.09c-.21.3-.53.66-.96,1.09s-.99.85-1.67,1.27c-.68.42-1.51.77-2.48,1.07-.97.3-2.1.44-3.41.44-2.05,0-3.89-.4-5.51-1.2-1.62-.8-3-1.82-4.15-3.07s-2.02-2.64-2.63-4.18c-.61-1.54-.91-3.07-.91-4.58,0-1.36.28-2.8.83-4.31s1.38-2.9,2.48-4.18c1.1-1.27,2.48-2.33,4.15-3.16s3.61-1.24,5.84-1.24c1.84,0,3.52.35,5.02,1.04,1.5.7,2.67,1.52,3.5,2.47v-2.85h4.64v21.29ZM210.4,26.04c0-1.72-.31-3.15-.94-4.29-.63-1.14-1.39-2.04-2.3-2.71-.91-.67-1.85-1.13-2.83-1.4s-1.83-.4-2.54-.4c-1.22,0-2.36.24-3.41.71-1.06.47-1.96,1.11-2.72,1.91-.76.8-1.35,1.73-1.78,2.8-.43,1.07-.65,2.18-.65,3.33s.21,2.21.62,3.24,1,1.96,1.76,2.78c.76.82,1.66,1.47,2.7,1.96,1.04.49,2.19.73,3.43.73,1.52,0,2.82-.3,3.9-.91,1.08-.61,1.98-1.36,2.7-2.24.71-.89,1.23-1.83,1.56-2.82.33-.99.49-1.89.49-2.69Z"/>
    <path class="st0" d="M225.61,38.31h-4.64V5.42h4.64v32.89Z"/>
    <path class="st0" d="M251.88,38.31v-3.82h-.09c-.89,1.51-2.09,2.63-3.59,3.36s-3.1,1.09-4.79,1.09c-2.08,0-3.94-.36-5.57-1.09-1.64-.73-3.01-1.69-4.13-2.89s-1.96-2.57-2.54-4.11-.87-3.13-.87-4.76c0-1.51.27-3.04.8-4.58.53-1.54,1.34-2.94,2.43-4.2,1.08-1.26,2.45-2.29,4.08-3.09,1.63-.8,3.57-1.2,5.8-1.2,1.73,0,3.33.35,4.82,1.04,1.49.7,2.68,1.73,3.57,3.09h.09v-3.47h4.64v24.63h-4.64ZM251.97,26.04c0-1.3-.22-2.5-.67-3.58s-1.06-2.01-1.83-2.78c-.77-.77-1.68-1.37-2.72-1.8-1.04-.43-2.16-.64-3.35-.64-1.43,0-2.67.27-3.72.82-1.06.55-1.94,1.25-2.65,2.11-.71.86-1.24,1.81-1.58,2.85-.34,1.04-.51,2.04-.51,3.02,0,1.13.21,2.21.62,3.24s1,1.96,1.74,2.76c.74.8,1.63,1.44,2.67,1.93,1.04.49,2.17.73,3.39.73s2.35-.23,3.39-.69c1.04-.46,1.95-1.08,2.72-1.87.77-.78,1.38-1.7,1.83-2.76.45-1.05.67-2.17.67-3.36Z"/>
    <path class="st0" d="M295.23,38.31v-13.69c0-.53-.05-1.22-.14-2.04s-.32-1.64-.69-2.42c-.37-.78-.95-1.47-1.74-2.04s-1.88-.87-3.28-.87c-1.49,0-2.63.29-3.41.87s-1.37,1.26-1.74,2.04c-.37.79-.59,1.59-.65,2.42s-.09,1.5-.09,2v13.74h-4.64v-13.69c.03-1.04,0-1.93-.11-2.69-.1-.76-.41-1.55-.91-2.38-.59-.89-1.29-1.5-2.1-1.82-.8-.33-1.64-.49-2.5-.49-1.52,0-2.69.3-3.52.89-.83.59-1.44,1.29-1.83,2.09-.39.8-.61,1.62-.67,2.45-.06.83-.09,1.47-.09,1.91v13.74h-4.64V13.68h4.28v2.67h.09c.21-.27.48-.58.83-.96.34-.37.79-.73,1.34-1.09s1.22-.66,2.01-.91c.79-.25,1.76-.38,2.92-.38.74,0,1.5.09,2.28.27.77.18,1.51.44,2.21.78s1.32.77,1.87,1.29c.55.52.99,1.12,1.32,1.8.21-.3.49-.68.85-1.16s.85-.93,1.47-1.38,1.41-.82,2.34-1.13c.94-.31,2.1-.47,3.5-.47,2.08,0,3.85.39,5.31,1.18,1.46.79,2.59,1.87,3.39,3.27.92,1.66,1.38,3.66,1.38,6v14.85h-4.64Z"/>
    <path class="st0" d="M305.8,13.68h4.24v3.78h.09c1.13-1.6,2.48-2.74,4.04-3.42,1.56-.68,3.14-1.02,4.75-1.02,2.08,0,3.92.39,5.53,1.16,1.61.77,2.94,1.78,4.02,3.02,1.07,1.24,1.88,2.67,2.43,4.27.55,1.6.82,3.22.82,4.85s-.28,3.1-.85,4.6-1.38,2.84-2.45,4.04c-1.07,1.2-2.38,2.16-3.93,2.89-1.55.73-3.3,1.09-5.26,1.09-1.31,0-2.45-.15-3.41-.44s-1.81-.65-2.52-1.07c-.71-.41-1.29-.87-1.74-1.36-.45-.49-.79-.93-1.03-1.31h-.09v11.78h-4.64V13.68ZM327.08,26.04c0-1.1-.21-2.17-.62-3.22-.42-1.05-1-1.99-1.74-2.82-.74-.83-1.63-1.5-2.67-2-1.04-.5-2.19-.76-3.43-.76s-2.33.24-3.35.73c-1.01.49-1.88,1.13-2.61,1.93-.73.8-1.29,1.73-1.69,2.78-.4,1.05-.6,2.14-.6,3.27,0,1.24.22,2.4.65,3.47.43,1.07,1.03,1.99,1.78,2.78.76.79,1.65,1.4,2.68,1.84,1.03.45,2.12.67,3.28.67,1.1,0,2.15-.21,3.14-.62s1.88-1,2.65-1.76c.77-.76,1.39-1.67,1.85-2.73.46-1.07.69-2.25.69-3.56Z"/>
    <path class="st0" d="M341.04,10.84h-4.64v-5.42h4.64v5.42ZM341.04,38.31h-4.64V13.68h4.64v24.63Z"/>
    <path class="st0" d="M364.28,38.31v-13.38c0-.47-.03-1.14-.09-2-.06-.86-.28-1.71-.67-2.56-.39-.84-1-1.58-1.83-2.2s-2.02-.93-3.57-.93c-1.96,0-3.54.65-4.73,1.96-1.19,1.3-1.78,3.2-1.78,5.69v13.42h-4.64V13.68h4.33v2.62h.09c.62-.83,1.31-1.47,2.05-1.91.74-.44,1.46-.77,2.14-.98.68-.21,1.3-.33,1.85-.36.55-.03.94-.04,1.18-.04,1.93,0,3.65.39,5.15,1.16,1.5.77,2.7,1.85,3.59,3.24.51.8.88,1.7,1.14,2.71.25,1.01.39,2.21.42,3.6v14.58h-4.64Z"/>
    <path class="st0" d="M400,34.98c0,2.02-.31,3.83-.91,5.45-.61,1.62-1.49,2.98-2.63,4.11-1.15,1.13-2.54,1.98-4.19,2.58-1.65.59-3.53.89-5.64.89-2.88,0-5.37-.71-7.47-2.13-2.1-1.42-3.67-3.3-4.71-5.64h5.17c.18.24.44.56.78.96.34.4.8.79,1.36,1.18s1.25.72,2.05,1c.8.28,1.75.42,2.85.42,1.22,0,2.36-.16,3.41-.47,1.06-.31,1.98-.82,2.77-1.51.79-.7,1.41-1.59,1.85-2.69.45-1.1.67-2.44.67-4.04h-.09c-.21.3-.53.66-.96,1.09s-.99.85-1.67,1.27c-.68.42-1.51.77-2.48,1.07-.97.3-2.1.44-3.41.44-2.05,0-3.89-.4-5.51-1.2-1.62-.8-3-1.82-4.15-3.07s-2.02-2.64-2.63-4.18c-.61-1.54-.91-3.07-.91-4.58,0-1.36.28-2.8.83-4.31s1.38-2.9,2.48-4.18c1.1-1.27,2.48-2.33,4.15-3.16s3.61-1.24,5.84-1.24c1.84,0,3.52.35,5.02,1.04,1.5.7,2.67,1.52,3.5,2.47v-2.85h4.64v21.29ZM395.36,26.04c0-1.72-.31-3.15-.94-4.29-.63-1.14-1.39-2.04-2.3-2.71-.91-.67-1.85-1.13-2.83-1.4s-1.83-.4-2.54-.4c-1.22,0-2.36.24-3.41.71-1.06.47-1.96,1.11-2.72,1.91-.76.8-1.35,1.73-1.78,2.8-.43,1.07-.65,2.18-.65,3.33s.21,2.21.62,3.24,1,1.96,1.76,2.78c.76.82,1.66,1.47,2.7,1.96,1.04.49,2.19.73,3.43.73,1.52,0,2.82-.3,3.9-.91,1.08-.61,1.98-1.36,2.7-2.24.71-.89,1.23-1.83,1.56-2.82.33-.99.49-1.89.49-2.69Z"/>
  </g>
</svg>