<?xml version="1.0" encoding="UTF-8"?>
<svg xmlns="http://www.w3.org/2000/svg" version="1.1" viewBox="0 0 355 70">
  <defs>
    <style>
      .cls-1 {
        fill: #fff;
      }
    </style>
  </defs>
  <!-- Generator: Adobe Illustrator 28.6.0, SVG Export Plug-In . SVG Version: 1.2.0 Build 709)  -->
  <g>
    <g id="_レイヤー_1" data-name="レイヤー_1">
      <g>
        <path class="cls-1" d="M337.9,37.3c-4.8-1.4-8.5-3.2-8.6-6.4,0-2.5,1.9-5.1,6-5.1s6.1,2.8,6.2,5.5h12c-1-12.2-11.2-15.3-18.1-15.3-9.8,0-18.2,6.2-18.2,16.2,0,7.3,5.6,11.1,12.5,13.3,9.3,3.2,13.1,4.4,13.1,8.8,0,3.4-3.2,5.9-6.9,5.9s-7-1.1-7.5-6.6h-12.1c.9,12.3,11.6,16.4,19.5,16.4s19.5-6.7,19.2-17.1c0-10.9-8.9-13.3-17.1-15.6Z"/>
        <path class="cls-1" d="M283.7,16c-15.4,0-26.6,12.7-26.6,27.1s11.2,26.8,26.9,26.8,10.3-1.5,14.5-4.5c4.2-2.9,7.9-7.1,10.3-12.8h-12.5c-2.3,4.2-6.3,6.9-12.2,6.9-2.2,0-5.9-.4-9.2-2.7-3.2-2.2-5.9-6.4-5.9-14,0-15.3,11-16.6,14.9-16.7,8.9,0,14,6.7,14.4,11.5h-14.6c-3.6,0-6.6,2.9-6.6,6.6v2.7h33c1.1-8.9-1.2-16.8-7.5-23.2-4.7-4.9-11.3-7.8-19-7.8Z"/>
        <path class="cls-1" d="M223.9,16.1c-6,0-11,1.6-15.1,4.3V6.6c0-3.6-2.9-6.6-6.6-6.6h-5.6v42.9h0c0,13.3,9.6,27,27.2,27s27.2-13.7,27.2-26.9-9.6-26.8-27.2-26.8ZM237.7,49c-.3.8-.7,1.5-1.2,2.3h0c-.8,1.5-2,2.9-3.3,3.9-.7.5-1.4,1-2.2,1.4-.7.5-1.4.8-2.2,1-.7.3-1.3.5-2,.6-1,.2-2,.3-3,.3s-2.1,0-3-.3c-.7-.2-1.4-.3-2-.6-.8-.2-1.5-.5-2.2-1-.8-.3-1.7-.8-2.4-1.6h0c-.5-.4-.8-.8-1.2-1.2-2.7-2.7-4.3-6.5-4.3-10.7v-.2h0c0-4.4,1.6-8.1,4.3-10.8.2-.2.4-.5.6-.6.2-.2.3-.4.5-.5h0c.7-.7,1.4-1.2,2.2-1.5.2,0,.3-.2.5-.3.6-.4,1.2-.6,1.9-.8.6-.3,1.3-.5,2-.6.9-.2,1.9-.3,3-.3s2.1,0,3,.3c.7.2,1.4.3,2,.6.6.2,1.3.4,1.9.8.2,0,.3.2.5.3.7.4,1.4.8,2,1.4,1.3.9,2.5,2.2,3.3,3.8.5.7.8,1.5,1.2,2.3.2.5.4.9.5,1.4.5,1.5.7,3,.7,4.6s-.4,4.2-1.2,6.1Z"/>
        <path class="cls-1" d="M160,16.1c-17.7,0-27.2,13.8-27.2,26.8h0c0,13.3,9.5,27,27.2,27s27.2-13.7,27.2-26.9-9.6-26.8-27.2-26.8ZM173.9,49c-.9,2.4-2.4,4.5-4.2,5.9h0c-1.5,1.3-3.1,2.2-4.9,2.8-.5.2-1.1.3-1.7.5-1,.2-2,.3-3,.3s-2.1,0-3-.3c-.7-.2-1.4-.3-2-.6-.8-.2-1.5-.5-2.2-1-.8-.3-1.6-.8-2.4-1.6h0c-2.5-2.1-4.4-5.1-5.1-8.7-.2-1.1-.3-2.2-.3-3.3s.2-3.2.7-4.6c0-.5.2-.9.5-1.4.5-1.2,1.1-2.3,1.8-3.3.3-.5.7-.9,1.2-1.3,0,0,0-.2,0,0,.4-.5.8-.9,1.2-1.2h0c.7-.7,1.4-1.2,2.2-1.5.2,0,.3-.2.5-.3.6-.4,1.2-.6,1.9-.8.6-.3,1.3-.5,2-.6.9-.2,2-.3,3-.3s2,0,3,.3c.6.2,1.2.3,1.7.5.8.2,1.6.5,2.4,1.1.8.4,1.7.9,2.5,1.7h0c1.9,1.5,3.3,3.5,4.2,5.9.2.5.4.9.5,1.4.5,1.5.7,3,.7,4.6s-.5,4.2-1.2,6.1Z"/>
        <path class="cls-1" d="M96.4,34.9c-4.5,0-8,3.6-8,8s3.6,8.1,8,8.1,8-3.6,8-8.1-3.6-8-8-8Z"/>
        <path class="cls-1" d="M96.5,16.1c-9.5,0-16.6,3.9-21.2,9.6-4.6-5.7-11.7-9.6-21.1-9.6s-16.6,3.9-21.1,9.6c-4.6-5.7-11.7-9.6-21.1-9.6h-5.3c-1.6,0-3,.5-4.2,1.5-1.5,1.2-2.4,3.1-2.4,5.1v4.7h11.9c8.3,0,14.9,6.5,15,15.4v22.7h0v2.8h12.1v-25.4h0c0-4.5,1.7-8.4,4.5-11.2,2.7-2.7,6.5-4.3,10.7-4.3,8.3,0,14.9,6.5,15,15.4v22.7h0c0,0,0,2.8,0,2.8h12.1v-25.4h0v-.5c0-.8,0-1.7.2-2.4,0,0,0-.2,0-.2l.2-.9c0-.2,0-.5.2-.7l.4-1.3c0,0,0-.2,0-.2l.5-.9.9-1.4c0,0,0-.2.2-.2.2-.5.6-1,1-1.5l.7-.9c.3-.3.6-.6,1-.8.7-.7,1.5-1.2,2.2-1.5.6-.5,1.3-.8,2.1-1,.7-.3,1.5-.5,2.2-.7h0c.7-.2,1.4-.2,2.2-.2.2,0,.5,0,.8,0h.2c.9,0,1.9,0,2.7.3.6,0,1.2.2,1.7.5.9.2,1.8.5,2.5,1.1.9.4,1.8.9,2.5,1.7,1.2.8,2.2,2,2.9,3.3.8,1.3,1.5,2.9,1.9,4.5.2.3.2.7.3,1.1,0,.2,0,.5,0,.8.2.6.2,1.2.2,1.9v23.1h0v2.8h5.6c3.6,0,6.6-2.9,6.6-6.6v-19c0-13-9.6-26.8-27.2-26.8Z"/>
      </g>
    </g>
  </g>
</svg>