<?xml version="1.0" encoding="UTF-8"?>
<svg id="_レイヤー_1" data-name="レイヤー_1" xmlns="http://www.w3.org/2000/svg" version="1.1" viewBox="0 0 337 40">
  <!-- Generator: Adobe Illustrator 29.3.1, SVG Export Plug-In . SVG Version: 2.1.0 Build 151)  -->
  <defs>
    <style>
      .st0 {
        fill: #fff;
      }
    </style>
  </defs>
  <path class="st0" d="M0,10.09h6.49v3.65c.63-1.32,3.43-4.54,8.44-4.54,2.37,0,5.01.69,7.12,2.96.63.69,1.37,1.9,1.74,2.64.53-.9,1.16-1.85,2.11-2.75,1.79-1.69,4.33-2.85,7.39-2.85,2.43,0,5.49.63,7.7,2.91,2.64,2.75,3.17,5.13,3.17,11.1v15.9h-6.91v-15.64c0-1.85-.16-3.86-1.16-5.39-.74-1.43-2.11-2.38-4.54-2.38s-4.12,1.06-5.01,2.64-1,3.12-1,4.86v15.9h-6.91v-15.9c0-1.69-.16-3.33-.9-4.81-.84-1.53-2.27-2.64-4.75-2.69-2.53,0-4.12,1.22-4.96,2.69-.84,1.53-1.11,3.33-1.11,5.02v15.69H0V10.09Z"/>
  <path class="st0" d="M49.33,24.52c0-7.4,5.44-15.27,15.51-15.27s15.51,7.87,15.51,15.32-5.44,15.38-15.51,15.38-15.51-7.87-15.51-15.38v-.05ZM56.25,24.62c0,5.07,3.85,8.82,8.6,8.82s8.55-3.75,8.55-8.88-3.8-8.88-8.55-8.88-8.6,3.75-8.6,8.88v.05Z"/>
  <path class="st0" d="M85.69,0h6.91v13.69c2.85-3.54,7.02-4.49,9.66-4.49,6.86,0,14.46,5.02,14.46,15.27s-6.86,15.54-14.78,15.54c-4.54,0-8.07-2.22-9.6-5.07v4.17h-6.65V0ZM109.8,24.52c0-4.76-3.64-8.88-8.71-8.88-5.38,0-8.76,4.23-8.76,8.93s3.38,8.98,8.6,8.98c5.65,0,8.86-4.49,8.86-8.98v-.05Z"/>
  <path class="st0" d="M121.99,0h6.91v6.18h-6.91V0ZM121.99,10.09h6.91v29.01h-6.91V10.09Z"/>
  <path class="st0" d="M135.71,0h6.91v39.1h-6.91V0Z"/>
  <path class="st0" d="M154.54,26.9c.32,4.65,4.43,7.24,8.39,7.19,3.38,0,5.65-1.53,6.97-3.91h7.12c-1.37,3.22-3.43,5.65-5.86,7.29-2.43,1.69-5.28,2.54-8.28,2.54-8.92,0-15.3-7.24-15.3-15.32s6.44-15.48,15.2-15.48c4.33,0,8.13,1.64,10.82,4.44,3.53,3.65,4.85,8.19,4.27,13.26h-23.32ZM171.06,21.61c-.26-2.75-3.17-6.61-8.23-6.55-5.12,0-7.92,3.7-8.18,6.55h16.41Z"/>
  <path class="st0" d="M197.49,24.52c0-7.4,5.44-15.27,15.51-15.27s15.51,7.87,15.51,15.32-5.44,15.38-15.51,15.38-15.51-7.87-15.51-15.38v-.05ZM204.4,24.62c0,5.07,3.85,8.82,8.6,8.82s8.55-3.75,8.55-8.88-3.8-8.88-8.55-8.88-8.6,3.75-8.6,8.88v.05Z"/>
  <path class="st0" d="M233.79,10.09h6.54v3.8c1.27-2.59,3.64-4.65,8.02-4.7v6.97h-.32c-4.85,0-7.33,2.27-7.33,7.29v15.64h-6.91V10.09Z"/>
  <path class="st0" d="M281.86,39.1h-6.6v-4.17c-1.27,2.17-4.01,5.07-9.92,5.07-8.92,0-14.67-6.97-14.67-15.43,0-9.41,6.7-15.38,14.56-15.38,5.54,0,8.65,2.96,9.71,4.65V0h6.91v39.1ZM257.59,24.57c0,4.91,3.54,8.93,8.87,8.93,2.53,0,4.8-1,6.44-2.64,1.64-1.64,2.59-3.91,2.48-6.45,0-2.54-1-4.7-2.59-6.24-1.58-1.59-3.8-2.54-6.28-2.54-5.65,0-8.92,4.33-8.92,8.88v.05Z"/>
  <path class="st0" d="M293.89,26.9c.32,4.65,4.43,7.24,8.39,7.19,3.38,0,5.65-1.53,6.97-3.91h7.12c-1.37,3.22-3.43,5.65-5.86,7.29-2.43,1.69-5.28,2.54-8.28,2.54-8.92,0-15.3-7.24-15.3-15.32s6.44-15.48,15.2-15.48c4.33,0,8.13,1.64,10.82,4.44,3.53,3.65,4.85,8.19,4.27,13.26h-23.32ZM310.41,21.61c-.26-2.75-3.17-6.61-8.23-6.55-5.12,0-7.92,3.7-8.18,6.55h16.41Z"/>
  <path class="st0" d="M322.44,10.09h6.54v3.8c1.27-2.59,3.64-4.65,8.02-4.7v6.97h-.32c-4.85,0-7.33,2.27-7.33,7.29v15.64h-6.91V10.09Z"/>
</svg>