<?xml version="1.0" encoding="utf-8"?>
<!-- Generator: Adobe Illustrator 27.9.0, SVG Export Plug-In . SVG Version: 6.00 Build 0)  -->
<svg version="1.1" id="レイヤー_1" xmlns="http://www.w3.org/2000/svg" xmlns:xlink="http://www.w3.org/1999/xlink" x="0px"
	 y="0px" viewBox="0 0 85 85" style="enable-background:new 0 0 85 85;" xml:space="preserve">
<style type="text/css">
	.st0{fill:#FFFFFF;}
	.st1{fill:#FCEE21;}
	.st2{fill:#FFFF8A;}
	.st3{fill:#595757;}
</style>
<g>
	<path class="st0" d="M81.5,42.5c0-21.5-17.5-39-39-39s-39,17.5-39,39s17.5,39,39,39S81.5,64,81.5,42.5z M42.5,1.5
		c22.6,0,41,18.4,41,41s-18.4,41-41,41s-41-18.4-41-41S19.9,1.5,42.5,1.5z"/>
	<circle class="st1" cx="42.5" cy="42.5" r="39"/>
	<path class="st2" d="M42.5,0C66,0,85,19,85,42.5S66,85,42.5,85S0,66,0,42.5S19,0,42.5,0z M83.5,42.5c0-22.6-18.4-41-41-41
		s-41,18.4-41,41s18.4,41,41,41S83.5,65.1,83.5,42.5z"/>
</g>
<g>
	<path class="st3" d="M35.7,57.5H24c-0.5,0-0.8-0.4-0.8-0.8c0-0.5,0.4-0.8,0.8-0.8h11.7c0.5,0,0.8-0.4,0.8-0.8V38.2
		c0-0.5-0.4-0.8-0.8-0.8H13.9c-0.5,0-0.8,0.4-0.8,0.8v16.7c0,0.5,0.4,0.8,0.8,0.8h1.7c0.5,0,0.8,0.4,0.8,0.8c0,0.5-0.4,0.8-0.8,0.8
		h-1.7c-1.4,0-2.5-1.1-2.5-2.5V38.2c0-1.4,1.1-2.5,2.5-2.5h21.8c1.4,0,2.5,1.1,2.5,2.5v16.7C38.2,56.3,37.1,57.5,35.7,57.5"/>
	<path class="st3" d="M26.5,62.5c-0.9,0-1.7,0.8-1.7,1.7c0,0.9,0.8,1.7,1.7,1.7h1.7c0.9,0,1.7-0.8,1.7-1.7c0-0.9-0.8-1.7-1.7-1.7
		H26.5z M28.2,67.5h-1.7c-1.8,0-3.3-1.5-3.3-3.3c0-1.8,1.5-3.3,3.3-3.3h1.7c1.8,0,3.3,1.5,3.3,3.3C31.5,66,30,67.5,28.2,67.5"/>
	<path class="st3" d="M41.6,52.4h-4.2c-0.5,0-0.8-0.4-0.8-0.8c0-0.5,0.4-0.8,0.8-0.8h4.2c0.9,0,1.7-0.8,1.7-1.7v-5
		c0-0.9-0.8-1.7-1.7-1.7h-4.2c-0.5,0-0.8-0.4-0.8-0.8c0-0.5,0.4-0.8,0.8-0.8h4.2c1.8,0,3.3,1.5,3.3,3.3v5
		C44.9,50.9,43.4,52.4,41.6,52.4"/>
	<path class="st3" d="M12.3,52.4H8.1c-1.8,0-3.3-1.5-3.3-3.3v-5c0-1.8,1.5-3.3,3.3-3.3h4.2c0.5,0,0.8,0.4,0.8,0.8
		c0,0.5-0.4,0.8-0.8,0.8H8.1c-0.9,0-1.7,0.8-1.7,1.7v5c0,0.9,0.8,1.7,1.7,1.7h4.2c0.5,0,0.8,0.4,0.8,0.8
		C13.1,52.1,12.7,52.4,12.3,52.4"/>
	<path class="st3" d="M40.7,42.4c-0.5,0-0.8-0.4-0.8-0.8v-5c0-2.3-1.9-4.2-4.2-4.2H13.9c-2.3,0-4.2,1.9-4.2,4.2v5
		c0,0.5-0.4,0.8-0.8,0.8c-0.5,0-0.8-0.4-0.8-0.8v-5c0-3.2,2.6-5.9,5.9-5.9h21.8c3.2,0,5.9,2.6,5.9,5.9v5
		C41.6,42,41.2,42.4,40.7,42.4"/>
	<path class="st3" d="M36.5,65h-5.9c-0.5,0-0.8-0.4-0.8-0.8c0-0.5,0.4-0.8,0.8-0.8h5.9c1.8,0,3.3-1.5,3.3-3.3v-8.4
		c0-0.5,0.4-0.8,0.8-0.8c0.5,0,0.8,0.4,0.8,0.8V60C41.6,62.7,39.3,65,36.5,65"/>
	<path class="st3" d="M15.6,65.8c-0.1,0-0.2,0-0.3-0.1c-0.3-0.1-0.5-0.4-0.5-0.8v-8.4c0-0.5,0.4-0.8,0.8-0.8s0.8,0.4,0.8,0.8V63
		l6.9-6.9c0.3-0.3,0.9-0.3,1.2,0c0.3,0.3,0.3,0.9,0,1.2l-8.4,8.4C16,65.7,15.8,65.8,15.6,65.8"/>
	<path class="st3" d="M31.5,44.1c0-0.9-0.7-1.7-1.7-1.7s-1.7,0.7-1.7,1.7s0.7,1.7,1.7,1.7S31.5,45,31.5,44.1"/>
	<path class="st3" d="M21.5,44.1c0-0.9-0.7-1.7-1.7-1.7s-1.7,0.7-1.7,1.7s0.7,1.7,1.7,1.7S21.5,45,21.5,44.1"/>
	<path class="st3" d="M24.8,53.3c-2.2,0-4.4-1.1-5.7-2.9c-0.3-0.4-0.2-0.9,0.2-1.2c0.4-0.3,0.9-0.2,1.2,0.2c1,1.4,2.6,2.2,4.3,2.2
		c1.7,0,3.3-0.8,4.3-2.2c0.3-0.4,0.8-0.5,1.2-0.2c0.4,0.3,0.5,0.8,0.2,1.2C29.2,52.2,27.1,53.3,24.8,53.3"/>
</g>
<g>
	<g id="_レイヤー_1">
		<g>
			<path class="st3" d="M70.2,21.8c-0.8-0.2-1.5-0.6-1.5-1.1c0-0.4,0.3-0.9,1-0.9s1.1,0.5,1.1,1h2.1c-0.2-2.1-1.9-2.6-3.1-2.6
				c-1.7,0-3.1,1.1-3.1,2.8c0,1.3,1,1.9,2.2,2.3c1.6,0.6,2.3,0.8,2.3,1.5c0,0.6-0.6,1-1.2,1c-0.6,0-1.2-0.2-1.3-1.1h-2.1
				c0.2,2.1,2,2.8,3.4,2.8c1.4,0,3.4-1.2,3.3-3C73.2,22.6,71.7,22.2,70.2,21.8z"/>
			<path class="st3" d="M60.9,18.1c-2.7,0-4.6,2.2-4.6,4.7s1.9,4.6,4.6,4.6c2.7,0,1.8-0.3,2.5-0.8c0.7-0.5,1.4-1.2,1.8-2.2h-2.2
				c-0.4,0.7-1.1,1.2-2.1,1.2c-0.4,0-1-0.1-1.6-0.5c-0.6-0.4-1-1.1-1-2.4c0-2.6,1.9-2.9,2.6-2.9c1.5,0,2.4,1.2,2.5,2h-2.5
				c-0.6,0-1.1,0.5-1.1,1.1v0.5h5.7c0.2-1.5-0.2-2.9-1.3-4C63.3,18.6,62.2,18.1,60.9,18.1L60.9,18.1z"/>
			<path class="st3" d="M50.6,18.1c-1,0-1.9,0.3-2.6,0.7v-2.4c0-0.6-0.5-1.1-1.1-1.1h-1v7.4l0,0c0,2.3,1.7,4.7,4.7,4.7
				c3,0,4.7-2.4,4.7-4.6S53.6,18.2,50.6,18.1L50.6,18.1z M52.9,23.8c-0.1,0.1-0.1,0.3-0.2,0.4l0,0c-0.1,0.3-0.3,0.5-0.6,0.7
				c-0.1,0.1-0.2,0.2-0.4,0.2c-0.1,0.1-0.2,0.1-0.4,0.2c-0.1,0.1-0.2,0.1-0.3,0.1c-0.2,0-0.3,0.1-0.5,0.1c-0.2,0-0.4,0-0.5-0.1
				c-0.1,0-0.2-0.1-0.3-0.1c-0.1,0-0.3-0.1-0.4-0.2c-0.1-0.1-0.3-0.1-0.4-0.3l0,0c-0.1-0.1-0.1-0.1-0.2-0.2
				c-0.5-0.5-0.7-1.1-0.7-1.8v0l0,0c0-0.8,0.3-1.4,0.7-1.9c0,0,0.1-0.1,0.1-0.1c0,0,0.1-0.1,0.1-0.1l0,0c0.1-0.1,0.2-0.2,0.4-0.3
				c0,0,0.1,0,0.1-0.1c0.1-0.1,0.2-0.1,0.3-0.1c0.1-0.1,0.2-0.1,0.3-0.1c0.2,0,0.3-0.1,0.5-0.1s0.4,0,0.5,0.1c0.1,0,0.2,0.1,0.3,0.1
				c0.1,0,0.2,0.1,0.3,0.1c0,0,0.1,0,0.1,0.1c0.1,0.1,0.2,0.1,0.3,0.2c0.2,0.2,0.4,0.4,0.6,0.7c0.1,0.1,0.1,0.3,0.2,0.4
				c0,0.1,0.1,0.2,0.1,0.2c0.1,0.3,0.1,0.5,0.1,0.8S53.1,23.5,52.9,23.8L52.9,23.8z"/>
			<path class="st3" d="M39.5,18.1c-3.1,0-4.7,2.4-4.7,4.6l0,0c0,2.3,1.6,4.7,4.7,4.7s4.7-2.4,4.7-4.6S42.5,18.2,39.5,18.1
				L39.5,18.1z M41.9,23.8c-0.2,0.4-0.4,0.8-0.7,1l0,0c-0.3,0.2-0.5,0.4-0.8,0.5c-0.1,0-0.2,0.1-0.3,0.1c-0.2,0-0.3,0.1-0.5,0.1
				s-0.4,0-0.5-0.1c-0.1,0-0.2-0.1-0.3-0.1c-0.1,0-0.3-0.1-0.4-0.2c-0.1-0.1-0.3-0.1-0.4-0.3l0,0c-0.4-0.4-0.8-0.9-0.9-1.5
				c0-0.2-0.1-0.4-0.1-0.6s0-0.6,0.1-0.8c0-0.1,0-0.2,0.1-0.2c0.1-0.2,0.2-0.4,0.3-0.6c0.1-0.1,0.1-0.2,0.2-0.2c0,0,0,0,0,0
				c0.1-0.1,0.1-0.2,0.2-0.2l0,0c0.1-0.1,0.2-0.2,0.4-0.3c0,0,0.1,0,0.1-0.1c0.1-0.1,0.2-0.1,0.3-0.1c0.1-0.1,0.2-0.1,0.3-0.1
				c0.2,0,0.3-0.1,0.5-0.1c0.2,0,0.3,0,0.5,0.1c0.1,0,0.2,0.1,0.3,0.1c0.1,0,0.3,0.1,0.4,0.2c0.1,0.1,0.3,0.2,0.4,0.3l0,0
				c0.3,0.3,0.6,0.6,0.7,1c0,0.1,0.1,0.2,0.1,0.2c0.1,0.3,0.1,0.5,0.1,0.8S42,23.6,41.9,23.8L41.9,23.8z"/>
			<path class="st3" d="M28.5,21.4c-0.8,0-1.4,0.6-1.4,1.4s0.6,1.4,1.4,1.4s1.4-0.6,1.4-1.4C29.9,22,29.3,21.4,28.5,21.4z"/>
			<path class="st3" d="M28.5,18.1c-1.6,0-2.9,0.7-3.7,1.7c-0.8-1-2-1.7-3.6-1.7s-2.9,0.7-3.6,1.7c-0.8-1-2-1.7-3.6-1.7H13
				c-0.3,0-0.5,0.1-0.7,0.3c-0.3,0.2-0.4,0.5-0.4,0.9v0.8h2.1c1.4,0,2.6,1.1,2.6,2.7v3.9l0,0v0.5h2.1v-4.4l0,0
				c0-0.8,0.3-1.5,0.8-1.9c0.5-0.5,1.1-0.7,1.8-0.7c1.4,0,2.6,1.1,2.6,2.7v3.9l0,0v0.5h2.1v-4.4l0,0v-0.1c0-0.1,0-0.3,0-0.4v0l0-0.2
				c0,0,0-0.1,0-0.1l0.1-0.2v0l0.1-0.2l0.2-0.2c0,0,0,0,0,0c0-0.1,0.1-0.2,0.2-0.3l0.1-0.2c0.1-0.1,0.1-0.1,0.2-0.1
				c0.1-0.1,0.3-0.2,0.4-0.3c0.1-0.1,0.2-0.1,0.4-0.2c0.1-0.1,0.3-0.1,0.4-0.1l0,0c0.1,0,0.2,0,0.4,0c0,0,0.1,0,0.1,0h0
				c0.2,0,0.3,0,0.5,0.1c0.1,0,0.2,0,0.3,0.1c0.2,0,0.3,0.1,0.4,0.2c0.2,0.1,0.3,0.2,0.4,0.3c0.2,0.1,0.4,0.3,0.5,0.6
				c0.1,0.2,0.3,0.5,0.3,0.8c0,0.1,0,0.1,0.1,0.2c0,0,0,0.1,0,0.1c0,0.1,0,0.2,0,0.3v4l0,0v0.5h1c0.6,0,1.1-0.5,1.1-1.1v-3.3
				C33.2,20.6,31.5,18.2,28.5,18.1L28.5,18.1z"/>
		</g>
	</g>
</g>
<path class="st3" d="M55.7,40.1L55.7,40.1c-0.7,0-1.2,0.4-1.4,1.1l-2.3,8c-0.1,0.4,0,0.9,0.2,1.3c0.3,0.4,0.7,0.6,1.2,0.6H58
	c0.5,0,0.9-0.2,1.2-0.6c0.3-0.4,0.4-0.8,0.2-1.3l-2.4-8C56.9,40.5,56.3,40.1,55.7,40.1 M53.4,49.5l2.3-8l2.4,8H53.4z"/>
<path class="st3" d="M66.9,55.5l-7.1-19.9c-0.2-0.5-0.6-0.8-1.2-0.8h-5.7c-0.5,0-1,0.3-1.2,0.8l-7.1,19.9c-0.3,0.8,0.3,1.6,1.2,1.6
	h4.5c0.5,0,1-0.4,1.2-0.9l0.6-2.1h7.3l0.6,2.1c0.2,0.5,0.6,0.9,1.2,0.9h4.6C66.6,57.2,67.2,56.3,66.9,55.5 M61.3,55.7l-0.6-1.9
	c-0.2-0.6-0.8-1-1.4-1H52c-0.7,0-1.2,0.4-1.4,1.1l-0.5,1.9h-4l7-19.4h5.4l7,19.4H61.3z"/>
<path class="st3" d="M76.3,34.8h-4.9c-0.7,0-1.2,0.6-1.2,1.2v19.9c0,0.7,0.6,1.2,1.2,1.2h4.9c0.7,0,1.2-0.6,1.2-1.2V36
	C77.5,35.3,76.9,34.8,76.3,34.8 M76,55.7h-4.4V36.3H76V55.7z"/>
<g>
	<path class="st3" d="M30.5,76.5l-1.1-1.1c1.7-0.7,2.1-1.4,2.2-2.7h-3.1v-1.3h7.4v1.3H33C32.9,74.3,32.5,75.5,30.5,76.5z M34.8,69.3
		v1.3h-5.4v-1.3H34.8z"/>
	<path class="st3" d="M44.5,75.6l-1.3,0.9c-0.5-0.8-1.3-1.6-2-2.3c-0.9,1-1.9,1.7-3,2.3l-0.9-1.2c2.3-1,3.9-2.9,4.4-4.5h-3.8v-1.3
		h4.7l1,0.6c-0.4,1.1-0.9,2.1-1.5,3C43,73.9,43.8,74.8,44.5,75.6z"/>
	<path class="st3" d="M53.1,73.2l-0.9,1.2c-0.8-0.6-1.8-1.2-2.8-1.7v3.8h-1.5v-7.7h1.5v2.4C50.6,71.7,52,72.5,53.1,73.2z"/>
	<path class="st3" d="M59,74.2v2.6h-1.4v-2.6H56v0.3h-1.3V70h3v-1.5H59V70h3.1v4.5h-1.4v-0.3H59z M57.6,72.9v-1.6H56v1.6H57.6z
		 M60.8,72.9v-1.6H59v1.6H60.8z"/>
</g>
</svg>
