<?xml version="1.0" encoding="UTF-8"?>
<svg id="_レイヤー_1" data-name="レイヤー_1" xmlns="http://www.w3.org/2000/svg" version="1.1" viewBox="0 0 149 50">
  <!-- Generator: Adobe Illustrator 29.3.1, SVG Export Plug-In . SVG Version: 2.1.0 Build 151)  -->
  <defs>
    <style>
      .st0 {
        fill: #fff;
      }
    </style>
  </defs>
  <path class="st0" d="M26.4,11.42h-4.62v-4.64h4.62v-1.78c0-1.14.21-2.04.63-2.71.42-.67.95-1.17,1.59-1.51.64-.34,1.32-.56,2.04-.65.72-.09,1.38-.13,1.97-.13h.71v3.71h-.56c-.1,0-.24.01-.41.04-.18.03-.34.1-.5.2-.16.11-.29.26-.41.45s-.18.46-.18.81v1.57h2.06v4.64h-2.06v11.68h-4.88v-11.68Z"/>
  <path class="st0" d="M52.6,23.1h-4.88v-1.76h-.06c-.22.39-.49.74-.82,1.03-.33.29-.72.54-1.15.74-.43.2-.89.34-1.37.43-.48.09-.96.13-1.43.13-1.29,0-2.45-.24-3.47-.71-1.02-.47-1.88-1.11-2.57-1.91-.7-.8-1.23-1.73-1.6-2.78-.37-1.05-.56-2.16-.56-3.34,0-1.33.22-2.54.68-3.62.45-1.08,1.05-1.99,1.79-2.75.74-.75,1.61-1.33,2.6-1.74.99-.4,2.03-.6,3.13-.6.67,0,1.26.07,1.79.22s.99.33,1.38.56c.39.23.72.47.97.73.25.26.46.52.62.78h.06v-1.74h4.88v16.32ZM39.58,14.99c0,.39.07.82.22,1.29.15.47.38.92.71,1.34.32.42.74.77,1.25,1.06.51.28,1.14.43,1.88.43s1.41-.14,1.93-.43c.52-.28.94-.64,1.26-1.06.32-.42.55-.88.69-1.37.14-.49.21-.93.21-1.32,0-.49-.08-.98-.25-1.47-.17-.49-.42-.94-.76-1.34-.34-.4-.77-.73-1.29-.97-.52-.24-1.12-.37-1.81-.37s-1.31.13-1.81.4-.92.6-1.25,1.01c-.33.41-.58.86-.74,1.35-.16.49-.24.97-.24,1.44Z"/>
  <path class="st0" d="M55.69,1.34h4.88v6.73c.43-.47.89-.83,1.37-1.07.48-.25.94-.43,1.38-.54s.84-.19,1.19-.21c.35-.02.62-.03.79-.03.84,0,1.74.16,2.69.49.95.32,1.82.83,2.6,1.51.78.69,1.44,1.57,1.96,2.66.52,1.09.78,2.41.78,3.96s-.24,2.76-.71,3.87c-.47,1.11-1.09,2.03-1.85,2.76-.76.73-1.64,1.28-2.63,1.65-.99.36-2,.54-3.04.54-1.16,0-2.15-.24-2.97-.71-.82-.47-1.39-1-1.71-1.59h-.06v1.74h-4.67V1.34ZM60.39,14.9c0,.57.09,1.11.28,1.62.19.51.45.96.79,1.34.34.38.76.69,1.25.91.49.23,1.04.34,1.65.34s1.19-.12,1.69-.35.93-.54,1.28-.93.63-.83.82-1.34c.2-.51.29-1.03.29-1.56s-.09-1.04-.28-1.54c-.19-.5-.46-.94-.81-1.32s-.77-.69-1.26-.93c-.49-.24-1.04-.35-1.65-.35-.65,0-1.22.12-1.72.35-.5.24-.93.55-1.28.94-.35.39-.62.83-.79,1.32-.18.49-.26.99-.26,1.5Z"/>
  <path class="st0" d="M90.71,23.1h-4.62v-1.74h-.06c-.25.53-.56.94-.91,1.24-.35.29-.73.52-1.12.68-.39.16-.78.25-1.16.29-.38.04-.73.06-1.04.06-.25,0-.58-.02-.97-.06-.39-.04-.81-.13-1.26-.28-.45-.15-.9-.36-1.35-.63-.45-.27-.85-.64-1.21-1.09-.33-.41-.59-.8-.78-1.16-.19-.36-.33-.73-.44-1.12-.11-.38-.18-.79-.21-1.24-.03-.44-.04-.95-.04-1.51V6.78h4.88v9.03c0,.27.01.6.04.99.03.38.12.74.28,1.07.16.33.42.62.78.85.36.24.87.35,1.51.35.35,0,.7-.05,1.03-.16.33-.11.63-.28.9-.53.26-.25.47-.58.63-1.01.16-.43.24-.97.24-1.62V6.78h4.88v16.32Z"/>
  <path class="st0" d="M93.77,1.34h4.88v21.76h-4.88V1.34Z"/>
  <path class="st0" d="M118.85,23.1h-4.88v-1.76h-.06c-.22.39-.49.74-.82,1.03-.33.29-.72.54-1.15.74-.43.2-.89.34-1.37.43-.48.09-.96.13-1.43.13-1.29,0-2.45-.24-3.47-.71-1.02-.47-1.88-1.11-2.57-1.91-.7-.8-1.23-1.73-1.6-2.78-.37-1.05-.56-2.16-.56-3.34,0-1.33.22-2.54.68-3.62.45-1.08,1.05-1.99,1.79-2.75.74-.75,1.61-1.33,2.6-1.74.99-.4,2.03-.6,3.13-.6.67,0,1.26.07,1.79.22s.99.33,1.38.56c.39.23.72.47.97.73.25.26.46.52.62.78h.06v-1.74h4.88v16.32ZM105.83,14.99c0,.39.07.82.22,1.29.15.47.38.92.71,1.34.32.42.74.77,1.25,1.06.51.28,1.14.43,1.88.43s1.41-.14,1.93-.43c.52-.28.94-.64,1.26-1.06.32-.42.55-.88.69-1.37.14-.49.21-.93.21-1.32,0-.49-.08-.98-.25-1.47-.17-.49-.42-.94-.76-1.34-.34-.4-.77-.73-1.29-.97-.52-.24-1.12-.37-1.81-.37s-1.31.13-1.81.4-.92.6-1.25,1.01c-.33.41-.58.86-.74,1.35-.16.49-.24.97-.24,1.44Z"/>
  <g>
    <path class="st0" d="M14.91,42.63c0,1.14-.17,2.17-.52,3.08-.34.91-.84,1.69-1.48,2.33-.65.64-1.43,1.12-2.36,1.46-.93.34-1.99.5-3.18.5-1.63,0-3.03-.4-4.21-1.21-1.18-.8-2.07-1.87-2.65-3.19h2.92c.1.13.25.31.44.54s.45.45.77.67c.32.22.7.41,1.16.57s.99.24,1.61.24c.69,0,1.33-.09,1.92-.26.6-.18,1.11-.46,1.56-.86.44-.39.79-.9,1.04-1.52.25-.62.38-1.38.38-2.29h-.05c-.12.17-.3.37-.54.62-.24.24-.56.48-.94.72-.39.24-.85.44-1.4.6-.54.17-1.19.25-1.92.25-1.16,0-2.19-.23-3.11-.68-.91-.45-1.69-1.03-2.34-1.74s-1.14-1.49-1.48-2.36-.52-1.74-.52-2.59c0-.77.16-1.58.47-2.44s.78-1.64,1.4-2.36c.62-.72,1.4-1.32,2.34-1.79.94-.47,2.04-.7,3.29-.7,1.04,0,1.98.2,2.83.59.85.39,1.5.86,1.98,1.4v-1.61h2.61v12.05ZM12.3,37.57c0-.97-.18-1.78-.53-2.43-.35-.65-.78-1.16-1.29-1.53s-1.04-.64-1.6-.79c-.55-.15-1.03-.23-1.43-.23-.69,0-1.33.13-1.92.4-.6.27-1.11.63-1.53,1.08-.43.45-.76.98-1.01,1.58s-.36,1.23-.36,1.89.12,1.25.35,1.84.57,1.11.99,1.57.93.83,1.52,1.11,1.23.41,1.94.41c.86,0,1.59-.17,2.2-.52.61-.34,1.12-.77,1.52-1.27.4-.5.7-1.04.88-1.6.18-.56.28-1.07.28-1.52Z"/>
    <path class="st0" d="M20.87,44.52h-2.62v-18.61h2.62v18.61Z"/>
    <path class="st0" d="M35.69,44.52v-2.16h-.05c-.5.86-1.18,1.49-2.03,1.9-.85.41-1.75.62-2.7.62-1.17,0-2.22-.21-3.14-.62-.92-.41-1.7-.96-2.33-1.64-.63-.68-1.11-1.45-1.43-2.33-.33-.87-.49-1.77-.49-2.69,0-.86.15-1.72.45-2.59.3-.87.76-1.66,1.37-2.38.61-.71,1.38-1.3,2.3-1.75s2.01-.68,3.27-.68c.97,0,1.88.2,2.72.59.84.39,1.51.98,2.01,1.75h.05v-1.96h2.62v13.94h-2.62ZM35.74,37.57c0-.74-.13-1.41-.38-2.03-.25-.61-.6-1.14-1.03-1.57s-.95-.78-1.53-1.02c-.59-.24-1.22-.36-1.89-.36-.8,0-1.5.16-2.1.47-.6.31-1.09.71-1.5,1.19-.4.49-.7,1.02-.89,1.61-.19.59-.29,1.16-.29,1.71,0,.64.12,1.25.35,1.84.24.59.56,1.11.98,1.56s.92.82,1.51,1.09,1.22.41,1.91.41,1.32-.13,1.91-.39c.59-.26,1.1-.61,1.53-1.06.44-.44.78-.96,1.03-1.56s.38-1.23.38-1.9Z"/>
    <path class="st0" d="M60.13,44.52v-7.75c0-.3-.03-.69-.08-1.16-.05-.47-.18-.93-.39-1.37-.21-.44-.54-.83-.98-1.16s-1.06-.49-1.85-.49c-.84,0-1.48.16-1.92.49s-.77.71-.98,1.16c-.21.44-.33.9-.36,1.37-.03.47-.05.85-.05,1.13v7.77h-2.62v-7.75c.02-.59,0-1.09-.06-1.52-.06-.43-.23-.88-.52-1.35-.34-.5-.73-.85-1.18-1.03-.45-.18-.92-.28-1.41-.28-.86,0-1.52.17-1.99.5-.47.34-.81.73-1.03,1.18s-.34.91-.38,1.38c-.03.47-.05.83-.05,1.08v7.77h-2.62v-13.94h2.41v1.51h.05c.12-.15.27-.33.47-.54.19-.21.44-.41.75-.62.31-.2.69-.37,1.13-.52.44-.14.99-.21,1.65-.21.42,0,.85.05,1.28.15.44.1.85.25,1.24.44.39.19.75.44,1.06.73.31.29.56.63.74,1.02.12-.17.28-.39.48-.65.2-.27.48-.53.83-.78.35-.25.79-.47,1.32-.64.53-.18,1.19-.26,1.97-.26,1.17,0,2.17.22,2.99.67.82.44,1.46,1.06,1.91,1.85.52.94.78,2.07.78,3.4v8.4h-2.62Z"/>
    <path class="st0" d="M66.09,30.58h2.39v2.14h.05c.64-.91,1.4-1.55,2.28-1.94.88-.39,1.77-.58,2.68-.58,1.17,0,2.21.22,3.12.65s1.66,1.01,2.26,1.71c.6.7,1.06,1.51,1.37,2.41.31.91.47,1.82.47,2.74s-.16,1.76-.48,2.6c-.32.85-.78,1.61-1.38,2.29-.6.68-1.34,1.22-2.21,1.64-.87.41-1.86.62-2.97.62-.74,0-1.38-.08-1.92-.25-.55-.17-1.02-.37-1.42-.6-.4-.23-.73-.49-.98-.77-.25-.28-.44-.52-.58-.74h-.05v6.67h-2.62v-18.59ZM78.09,37.57c0-.62-.12-1.23-.35-1.82-.24-.6-.56-1.13-.98-1.6-.42-.47-.92-.85-1.51-1.13-.59-.28-1.23-.43-1.94-.43s-1.32.14-1.89.41c-.57.28-1.06.64-1.47,1.09-.41.45-.73.98-.96,1.57-.23.6-.34,1.21-.34,1.85,0,.7.12,1.36.37,1.96s.58,1.13,1.01,1.57.93.79,1.51,1.04c.58.25,1.19.38,1.85.38.62,0,1.21-.12,1.77-.35.56-.23,1.06-.57,1.5-.99.44-.43.78-.94,1.04-1.55.26-.6.39-1.27.39-2.01Z"/>
    <path class="st0" d="M85.96,28.97h-2.62v-3.07h2.62v3.07ZM85.96,44.52h-2.62v-13.94h2.62v13.94Z"/>
    <path class="st0" d="M99.06,44.52v-7.57c0-.27-.02-.65-.05-1.13-.03-.49-.16-.97-.38-1.45-.22-.48-.56-.89-1.03-1.25s-1.14-.53-2.01-.53c-1.11,0-2,.37-2.67,1.11-.67.74-1.01,1.81-1.01,3.22v7.6h-2.62v-13.94h2.44v1.48h.05c.35-.47.74-.83,1.16-1.08s.82-.44,1.21-.55c.39-.12.73-.18,1.04-.2.31-.02.53-.03.67-.03,1.09,0,2.06.22,2.9.65.85.44,1.52,1.05,2.02,1.84.29.45.5.96.64,1.53.14.57.22,1.25.24,2.04v8.25h-2.62Z"/>
    <path class="st0" d="M119.2,42.63c0,1.14-.17,2.17-.52,3.08-.34.91-.84,1.69-1.48,2.33-.65.64-1.43,1.12-2.36,1.46-.93.34-1.99.5-3.18.5-1.63,0-3.03-.4-4.21-1.21-1.18-.8-2.07-1.87-2.65-3.19h2.92c.1.13.25.31.44.54s.45.45.77.67c.32.22.7.41,1.16.57s.99.24,1.61.24c.69,0,1.33-.09,1.92-.26.6-.18,1.11-.46,1.56-.86.44-.39.79-.9,1.04-1.52.25-.62.38-1.38.38-2.29h-.05c-.12.17-.3.37-.54.62-.24.24-.56.48-.94.72-.39.24-.85.44-1.4.6-.54.17-1.19.25-1.92.25-1.16,0-2.19-.23-3.11-.68-.91-.45-1.69-1.03-2.34-1.74s-1.14-1.49-1.48-2.36-.52-1.74-.52-2.59c0-.77.16-1.58.47-2.44s.78-1.64,1.4-2.36c.62-.72,1.4-1.32,2.34-1.79.94-.47,2.04-.7,3.29-.7,1.04,0,1.98.2,2.83.59.85.39,1.5.86,1.98,1.4v-1.61h2.61v12.05ZM116.59,37.57c0-.97-.18-1.78-.53-2.43-.35-.65-.78-1.16-1.29-1.53s-1.04-.64-1.6-.79c-.55-.15-1.03-.23-1.43-.23-.69,0-1.33.13-1.92.4-.6.27-1.11.63-1.53,1.08-.43.45-.76.98-1.01,1.58s-.36,1.23-.36,1.89.12,1.25.35,1.84.57,1.11.99,1.57.93.83,1.52,1.11,1.23.41,1.94.41c.86,0,1.59-.17,2.2-.52.61-.34,1.12-.77,1.52-1.27.4-.5.7-1.04.88-1.6.18-.56.28-1.07.28-1.52Z"/>
  </g>
  <g>
    <rect class="st0" x="126.57" y="27.33" width="8.96" height="22.67"/>
    <rect class="st0" x="145.01" y="27.33" width="3.99" height="22.67"/>
    <path class="st0" d="M126.57,1.34v16.98h8.96v-3.46c0-2.21.41-3.96,1.23-5.25.82-1.29,1.84-2.27,3.08-2.94,1.24-.66,2.56-1.08,3.97-1.26,1.41-.17,2.68-.26,3.82-.26h1.37V1.34h-22.43Z"/>
    <path class="st0" d="M147.12,12.44c-.34.06-.67.19-.97.39-.3.21-.57.5-.8.87-.23.38-.34.9-.34,1.58v3.05h3.99v-5.97h-1.08c-.19,0-.46.03-.8.08Z"/>
  </g>
</svg>