<?xml version="1.0" encoding="UTF-8"?>
<svg id="_レイヤー_2" data-name="レイヤー 2" xmlns="http://www.w3.org/2000/svg" viewBox="0 0 49.93 49.93">
  <defs>
    <style>
      .cls-1 {
        fill: #fff;
      }

      .cls-2 {
        fill: #6385b7;
      }
    </style>
  </defs>
  <g id="_レイヤー_1-2" data-name="レイヤー 1">
    <g>
      <rect class="cls-2" width="49.93" height="49.93"/>
      <g>
        <circle class="cls-2" cx="24.97" cy="24.97" r="24.97"/>
        <g>
          <rect class="cls-1" x="7.4" y="25.89" width="5.01" height="12.67"/>
          <rect class="cls-1" x="17.71" y="25.89" width="2.23" height="12.67"/>
          <path class="cls-1" d="M7.4,11.37v9.49h5.01v-1.94c0-1.23.23-2.21.69-2.93.46-.72,1.03-1.27,1.72-1.64.69-.37,1.43-.61,2.22-.7.79-.1,1.5-.14,2.14-.14h.77v-2.14H7.4Z"/>
          <path class="cls-1" d="M18.89,17.57c-.19.03-.37.1-.54.22-.17.12-.32.28-.45.49-.13.21-.19.5-.19.88v1.7h2.23v-3.34h-.61c-.11,0-.26.02-.45.05Z"/>
        </g>
        <path class="cls-1" d="M43.89,28.55c0,1.62-.24,3.07-.73,4.37-.49,1.3-1.19,2.4-2.1,3.3-.92.9-2.03,1.59-3.35,2.07-1.32.48-2.82.71-4.51.71-2.31,0-4.3-.57-5.97-1.71-1.68-1.14-2.93-2.65-3.76-4.53h4.14c.14.19.35.45.62.77.27.32.64.64,1.09.95.45.31,1,.58,1.64.8.64.23,1.4.34,2.28.34.98,0,1.88-.12,2.73-.37.84-.25,1.58-.65,2.21-1.21.63-.56,1.12-1.28,1.48-2.16.36-.88.53-1.96.53-3.25h-.07c-.17.24-.42.53-.77.87-.34.34-.79.68-1.34,1.02-.55.33-1.21.62-1.98.86-.77.24-1.68.36-2.73.36-1.64,0-3.11-.32-4.4-.96-1.3-.64-2.4-1.46-3.32-2.46-.91-1-1.62-2.12-2.1-3.35-.49-1.24-.73-2.46-.73-3.67,0-1.09.22-2.25.66-3.46.44-1.21,1.1-2.33,1.98-3.35.88-1.02,1.99-1.87,3.32-2.53s2.89-1,4.67-1c1.47,0,2.81.28,4.01.84,1.2.56,2.13,1.22,2.8,1.98v-2.28h3.71v17.08ZM40.18,21.38c0-1.38-.25-2.53-.75-3.44-.5-.92-1.11-1.64-1.84-2.18-.73-.53-1.48-.91-2.26-1.12s-1.46-.32-2.03-.32c-.98,0-1.88.19-2.73.57-.84.38-1.57.89-2.18,1.53-.61.64-1.08,1.39-1.43,2.25s-.52,1.75-.52,2.67.17,1.77.5,2.6c.33.83.8,1.58,1.41,2.23.61.65,1.33,1.18,2.16,1.57s1.75.59,2.75.59c1.21,0,2.25-.24,3.12-.73.87-.49,1.59-1.09,2.16-1.8s.99-1.47,1.25-2.26c.26-.8.39-1.52.39-2.16Z"/>
      </g>
    </g>
  </g>
</svg>